<svg width="70" height="81" viewBox="0 0 70 81" fill="none" xmlns="http://www.w3.org/2000/svg">
<path d="M19.3859 6.55176H51.0862C57.5352 6.55176 59.8711 7.22532 62.2214 8.48645C64.5546 9.72016 66.4622 11.6278 67.6959 13.9609C68.957 16.3112 69.6306 18.6472 69.6306 25.0962V56.7965C69.6306 63.2455 68.957 65.5815 67.6959 67.9318C66.4622 70.2649 64.5546 72.1725 62.2214 73.4062C59.8711 74.6674 57.5352 75.3409 51.0862 75.3409H19.3859C12.9369 75.3409 10.6009 74.6674 8.2506 73.4062C5.91746 72.1725 4.00983 70.2649 2.77613 67.9318C1.515 65.5958 0.841438 63.2455 0.841438 56.7965V25.0962C0.841438 18.6472 1.515 16.3112 2.77613 13.9609C4.00983 11.6278 5.91746 9.72016 8.2506 8.48645C10.6009 7.22532 12.9369 6.55176 19.3859 6.55176Z" fill="#EAE60E"/>
<path d="M52.419 20.5098C53.2869 20.5135 54.118 20.861 54.7304 21.476C55.3427 22.0911 55.6865 22.9237 55.6865 23.7916V31.9316H62.5081V23.7916C62.5081 18.2024 57.9795 13.6738 52.419 13.6738H44.2503V20.5098H52.419Z" fill="#63666A"/>
<path d="M55.6865 58.1423C55.6865 59.0089 55.3423 59.84 54.7295 60.4528C54.1167 61.0656 53.2856 61.4098 52.419 61.4098H44.2503V68.2171H52.419C55.0912 68.2133 57.653 67.1511 59.5439 65.263C61.4347 63.3748 62.5005 60.8145 62.5081 58.1423V49.9736H55.6865V58.1423Z" fill="#63666A"/>
<path d="M14.7855 23.7916C14.7836 23.3606 14.8667 22.9335 15.0298 22.5346C15.193 22.1357 15.4332 21.7728 15.7366 21.4668C16.04 21.1607 16.4008 20.9174 16.7982 20.7507C17.1957 20.584 17.622 20.4973 18.053 20.4954H26.2217V13.6738H18.053C15.3746 13.6814 12.8085 14.7507 10.9172 16.6474C9.02596 18.544 7.96393 21.1131 7.96394 23.7916V31.9316H14.7855V23.7916Z" fill="#63666A"/>
<path d="M18.053 61.4098C17.1876 61.4061 16.3587 61.0606 15.7467 60.4486C15.1348 59.8367 14.7893 59.0078 14.7855 58.1423V49.9736H7.96394V58.1423C7.97151 60.8145 9.03736 63.3748 10.9282 65.263C12.819 67.1511 15.3809 68.2133 18.053 68.2171H26.2217V61.4098H18.053Z" fill="#63666A"/>
<path d="M31.3093 57.3108L16.7346 42.7361L21.5498 37.9065L31.2949 47.6516L48.9222 30.0244L53.7374 34.854L31.3093 57.3108Z" fill="#63666A"/>
</svg>
