<svg width="116" height="24" viewBox="0 0 116 24" fill="none" xmlns="http://www.w3.org/2000/svg">
<path d="M56.4902 4.70864H55.2247V6.35768H54.4577V2.43066H55.2247V4.03368H56.4902V2.43066H57.2572V6.36535H56.4902V4.70864Z" fill="#63666A"/>
<path d="M60.3482 5.48316H59.1823L58.9062 6.35754H58.1392L59.4124 2.42285H60.1794L61.445 6.35754H60.632L60.3482 5.48316ZM59.3587 4.86956H60.2024L59.8036 3.55034H59.7499L59.3587 4.86956Z" fill="#63666A"/>
<path d="M65.3797 7.117H64.6894V6.35768H62.2043V2.43066H62.9943V5.68272H64.1065V2.43066H64.8965V5.68272H65.3797V7.117Z" fill="#63666A"/>
<path d="M68.1715 4.27131L68.2099 3.76509H68.1869L67.9568 4.29432L66.8523 6.36521H66.139V2.42285H66.906V4.46306L66.8523 4.99228H66.883L67.1207 4.44772L68.2252 2.42285H68.9309V6.35754H68.1639L68.1715 4.27131Z" fill="#63666A"/>
<path d="M70.0737 4.51675C70.0737 4.19461 70.1043 3.90315 70.1657 3.6347C70.2271 3.37392 70.3191 3.15917 70.4495 2.97509C70.5799 2.79868 70.7333 2.66829 70.925 2.56858C71.1168 2.46887 71.3392 2.42285 71.6 2.42285C71.8761 2.42285 72.1062 2.47654 72.3056 2.57625C72.4974 2.68363 72.6508 2.82169 72.7658 3.01344C72.8962 3.19752 72.9806 3.41228 73.0419 3.67305C73.0956 3.92616 73.1186 4.20995 73.1186 4.51675C73.1186 5.17636 72.9959 5.69025 72.7428 6.05074C72.4897 6.43423 72.1062 6.61064 71.5923 6.61064C71.3239 6.61064 71.0861 6.55695 70.8943 6.45724C70.702 6.35667 70.5384 6.20888 70.4188 6.02773C70.2902 5.82391 70.2017 5.59743 70.158 5.36044C70.1043 5.10733 70.0813 4.82355 70.0813 4.51675M70.902 4.51675C70.902 4.71617 70.9174 4.90024 70.9327 5.06131C70.948 5.23005 70.9787 5.38345 71.0324 5.50617C71.0784 5.62889 71.1475 5.7286 71.2395 5.79763C71.3315 5.87433 71.4466 5.91268 71.6 5.91268C71.7304 5.91268 71.8454 5.882 71.9298 5.82831C72.0218 5.76695 72.0908 5.68258 72.1445 5.56753C72.1982 5.45248 72.2366 5.31442 72.2596 5.13801C72.318 4.6055 72.2921 4.06712 72.1829 3.54266C72.1409 3.42256 72.0666 3.31639 71.9681 3.23587C71.8616 3.15844 71.7314 3.12048 71.6 3.12849C71.3315 3.12849 71.1398 3.24354 71.0477 3.47363C70.9557 3.70373 70.902 4.05655 70.902 4.51675Z" fill="#63666A"/>
<path d="M76.0409 4.70864H74.7754V6.35768H74.0084V2.43066H74.7754V4.03368H76.0409V2.43066H76.8079V6.36535H76.0409V4.70864Z" fill="#63666A"/>
<path d="M79.9066 5.48316H78.7331L78.4646 6.35754H77.6976L78.9632 2.42285H79.7302L80.9957 6.35754H80.1827L79.9066 5.48316ZM78.9095 4.86956H79.7532L79.3543 3.55034H79.3006L78.9095 4.86956Z" fill="#63666A"/>
<path d="M84.01 3.12082H83.266C83.2297 3.72233 83.1837 4.32323 83.1279 4.92325C83.0896 5.16102 83.0512 5.37578 83.0052 5.55219C82.9592 5.73627 82.8902 5.882 82.8135 6.01239C82.7061 6.1888 82.5834 6.31919 82.4376 6.38821C82.3112 6.44919 82.1731 6.48213 82.0328 6.48478C81.8925 6.48743 81.7532 6.45972 81.6246 6.40355L81.7167 5.7286C81.7365 5.73581 81.7571 5.74095 81.778 5.74394C81.8668 5.75829 81.9579 5.7449 82.0388 5.70559C82.1002 5.67491 82.1615 5.62122 82.2075 5.55219C82.2612 5.46782 82.3072 5.33743 82.3456 5.16869C82.3839 5.00762 82.4146 4.79287 82.4376 4.53976C82.4607 4.28665 82.4837 3.97985 82.499 3.6347L82.5373 2.42285H84.8V6.44191H84.01V3.12082Z" fill="#63666A"/>
<path d="M85.9428 2.42285H86.7328V3.85713C86.8089 3.84435 86.8858 3.83666 86.9629 3.83412L87.1317 3.81878C87.3631 3.80517 87.5954 3.82323 87.822 3.87247C87.9984 3.91082 88.1518 3.97985 88.2898 4.07189C88.4279 4.1716 88.5353 4.30199 88.612 4.47073C88.6963 4.6318 88.7347 4.84656 88.7347 5.09967C88.7347 5.55986 88.5966 5.90501 88.3052 6.13511C88.0214 6.36521 87.6149 6.48792 87.078 6.48792H86.8632C86.5541 6.48172 86.2461 6.44835 85.9428 6.38821V2.42285ZM87.124 5.78996C87.2314 5.78996 87.3311 5.77462 87.4308 5.75161C87.5188 5.73219 87.6022 5.69571 87.6762 5.64423C87.7529 5.59821 87.8066 5.52918 87.845 5.44481C87.891 5.36044 87.9063 5.25306 87.9063 5.13801C87.9063 5.00763 87.891 4.90024 87.845 4.81588C87.8039 4.73766 87.7431 4.67156 87.6686 4.62413C87.594 4.57675 87.5104 4.54541 87.4231 4.53209C87.2911 4.51289 87.1574 4.50775 87.0243 4.51675L86.9092 4.53209C86.8499 4.535 86.7909 4.5427 86.7328 4.5551V5.75161C86.862 5.77467 86.9928 5.78749 87.124 5.78996Z" fill="#63666A"/>
<path d="M91.6492 4.70864H90.3914V6.35768H89.6244V2.43066H90.3914V4.03368H91.6492V2.43066H92.4162V6.36535H91.6492V4.70864Z" fill="#63666A"/>
<path d="M95.5149 5.48316H94.3414L94.073 6.35754H93.306L94.5792 2.42285H95.3462L96.6041 6.35754H95.7987L95.5149 5.48316ZM94.5255 4.86956H95.3692L94.9704 3.55034H94.9167L94.5255 4.86956Z" fill="#63666A"/>
<path d="M100.286 6.48827H99.511V4.99263H99.1275L98.2838 6.48827H97.3634L98.3681 4.85457C98.2838 4.82389 98.1994 4.77788 98.1074 4.71652C98.0186 4.65294 97.9409 4.5752 97.8773 4.48642C97.8061 4.38595 97.7516 4.27455 97.7162 4.15661C97.6728 4.01241 97.6521 3.86233 97.6548 3.71175C97.6548 3.45864 97.7085 3.24389 97.8313 3.06748C97.934 2.91351 98.0662 2.78139 98.2202 2.67872C98.3742 2.57604 98.547 2.50484 98.7286 2.46922C98.997 2.42244 99.2701 2.40956 99.5417 2.43087C99.7916 2.44345 100.04 2.47421 100.286 2.52291V6.48827ZM99.511 3.15185C99.4149 3.13295 99.3174 3.12268 99.2195 3.12117C99.1275 3.12117 99.0354 3.12884 98.9511 3.15185C98.8663 3.17127 98.7874 3.21072 98.721 3.26689C98.6501 3.3186 98.5902 3.38376 98.5446 3.45864C98.4996 3.54156 98.4744 3.63372 98.4708 3.72797C98.4673 3.82222 98.4855 3.91602 98.5241 4.00208C98.5627 4.08814 98.6205 4.16415 98.6933 4.22421C98.766 4.28427 98.8516 4.32675 98.9434 4.34836C99.0584 4.37904 99.1735 4.39438 99.2809 4.39438H99.511V3.15185Z" fill="#63666A"/>
<path d="M56.751 13.1774H57.3799V14.3279C57.2572 14.4199 57.1038 14.4813 56.9197 14.535C56.491 14.6528 56.0369 14.6394 55.6158 14.4966C55.3934 14.4199 55.194 14.3049 55.0253 14.1362C54.8565 13.9674 54.7185 13.7527 54.6111 13.4842C54.5114 13.2158 54.4577 12.8936 54.4577 12.5178C54.4577 12.119 54.519 11.7891 54.6341 11.5207C54.7236 11.2852 54.8653 11.0732 55.0487 10.9004C55.232 10.7277 55.4522 10.5989 55.6925 10.5236C56.0963 10.4045 56.5236 10.3887 56.9351 10.4776C57.0885 10.5159 57.2189 10.5543 57.3186 10.6156V11.8122H56.6973V11.1525C56.5757 11.132 56.4525 11.1218 56.3291 11.1219C56.1757 11.1219 56.0454 11.1525 55.915 11.2062C55.7923 11.2599 55.6849 11.352 55.5852 11.467C55.4854 11.5821 55.4164 11.7201 55.3551 11.8965C55.309 12.0729 55.2784 12.28 55.2784 12.5101C55.2784 12.7249 55.309 12.9166 55.3551 13.0854C55.4087 13.2541 55.4778 13.3998 55.5698 13.5226C55.6649 13.6487 55.7894 13.7496 55.9324 13.8164C56.0755 13.8833 56.2328 13.914 56.3905 13.9061C56.5132 13.9061 56.6359 13.8984 56.751 13.8754V13.1774Z" fill="#63666A"/>
<path d="M60.4249 12.28L60.4709 11.7661H60.4402L60.2101 12.2953L59.1057 14.3585H58.3924V10.4238H59.1594V12.464L59.1057 12.9933H59.1364L59.3818 12.4487L60.4863 10.4238H61.1919V14.3585H60.4249V12.28Z" fill="#63666A"/>
<path d="M64.49 13.1776H65.1266V14.3281C65.0038 14.4202 64.8504 14.4815 64.6664 14.5352C64.2377 14.653 63.7835 14.6397 63.3625 14.4969C63.1324 14.4202 62.9406 14.3051 62.7719 14.1364C62.5955 13.9677 62.4651 13.7529 62.3577 13.4844C62.258 13.216 62.2043 12.8939 62.2043 12.518C62.2043 12.1192 62.2657 11.7894 62.3807 11.5209C62.4697 11.2852 62.6113 11.0728 62.7947 10.9001C62.9781 10.7273 63.1985 10.5986 63.4392 10.5238C63.8429 10.4045 64.2702 10.3886 64.6817 10.4778C64.8351 10.5162 64.9655 10.5545 65.0652 10.6159V11.8124H64.4363V11.1528C64.3171 11.1328 64.1966 11.1225 64.0758 11.1221C63.9224 11.1221 63.792 11.1528 63.6616 11.2065C63.5312 11.2602 63.4238 11.3522 63.3241 11.4672C63.2222 11.5942 63.1466 11.7403 63.1017 11.8968C63.048 12.0732 63.025 12.2803 63.025 12.5104C63.025 12.7251 63.048 12.9169 63.1017 13.0856C63.1477 13.2543 63.2167 13.4001 63.3165 13.5228C63.4116 13.6468 63.5351 13.7464 63.6765 13.8131C63.8179 13.8798 63.9732 13.9117 64.1295 13.9063C64.2599 13.9063 64.3749 13.8986 64.4976 13.8756L64.49 13.1776Z" fill="#63666A"/>
<path d="M66.4151 13.7372H67.0824V11.0374H66.5225V11.7277H65.8859V10.4238H69.0613V11.7277H68.4247V11.0374H67.8724V13.7372H68.5244V14.3508H66.4151V13.7372Z" fill="#63666A"/>
<path d="M69.951 10.4238H72.5818V11.1141H70.741V12.0268H72.4437V12.7095H70.7333V13.6682H72.6124V14.3585H69.951V10.4238Z" fill="#63666A"/>
<path d="M75.7801 12.2569L75.8108 11.6434H75.7725L75.1435 12.6788H75.0131L74.3535 11.6434H74.3228L74.3612 12.1956V14.3585H73.6325V10.4238H74.4072L75.0822 11.513H75.1052L75.7725 10.4238H76.5471V14.3585H75.7801V12.2569Z" fill="#63666A"/>
<path d="M79.5231 13.4841H78.3496L78.0811 14.3585H77.3141L78.5797 10.4238H79.3466L80.6122 14.3585H79.8068L79.5231 13.4841ZM78.526 12.8705H79.3697L78.9708 11.5513H78.9248L78.526 12.8705Z" fill="#63666A"/>
<path d="M86.7021 15.1178H86.0118V14.3585H83.5344V10.4238H84.3244V13.6759H85.4289V10.4238H86.2189V13.6759H86.7021V15.1178Z" fill="#63666A"/>
<path d="M89.7471 12.28L89.7931 11.7661H89.7624L89.5323 12.2953L88.4279 14.3585H87.7222V10.4238H88.4892V12.464L88.4279 12.9933H88.4662L88.704 12.4487L89.8085 10.4238H90.5141V14.3585H89.7471V12.28Z" fill="#63666A"/>
<path d="M92.8074 10.4238H93.5514V10.8533C93.7125 10.8533 93.8659 10.8917 94.0193 10.9377C94.1727 10.9914 94.3107 11.0758 94.4334 11.1985C94.5562 11.3135 94.6482 11.4746 94.7249 11.6817C94.7939 11.8811 94.8323 12.1419 94.8323 12.4564C94.8323 12.7632 94.7939 13.0239 94.7249 13.2234C94.6559 13.4381 94.5715 13.6069 94.4488 13.7372C94.3338 13.8676 94.2034 13.9673 94.0423 14.021C93.8889 14.0747 93.7278 14.1131 93.5514 14.1207V14.6116H92.8074V14.1207C92.6397 14.1122 92.4743 14.0786 92.3166 14.021C92.1632 13.9597 92.0251 13.8676 91.91 13.7372C91.795 13.6069 91.7029 13.4304 91.6339 13.231C91.5572 13.0239 91.5266 12.7708 91.5266 12.464C91.5266 12.1572 91.5649 11.9041 91.6416 11.7047C91.6891 11.5317 91.7773 11.3726 91.8986 11.2406C92.02 11.1085 92.1712 11.0073 92.3396 10.9454C92.493 10.8917 92.6463 10.861 92.7997 10.8533L92.8074 10.4238ZM92.8458 11.4746C92.7576 11.477 92.6714 11.5014 92.595 11.5456C92.5187 11.5898 92.4546 11.6524 92.4086 11.7277C92.3242 11.8811 92.2782 12.1266 92.2782 12.4717C92.2782 12.6788 92.2935 12.8475 92.3166 12.9779C92.3472 13.1083 92.3856 13.208 92.4393 13.2847C92.4853 13.3614 92.5466 13.4228 92.6157 13.4535C92.6924 13.4841 92.7614 13.5071 92.8458 13.5148V11.4746ZM93.5131 13.5148C93.5898 13.5071 93.6665 13.4841 93.7432 13.4535C93.8122 13.4228 93.8735 13.3691 93.9272 13.2924C93.9732 13.2157 94.0116 13.1083 94.0423 12.9779C94.073 12.8475 94.0883 12.6711 94.0883 12.4717C94.0883 12.1266 94.0423 11.8811 93.9502 11.7277C93.9037 11.6529 93.8395 11.5907 93.7633 11.5465C93.687 11.5024 93.6011 11.4777 93.5131 11.4746V13.5148Z" fill="#63666A"/>
<path d="M96.0978 10.5149C96.6622 10.4116 97.2391 10.3961 97.8082 10.4689C98.0077 10.4996 98.1917 10.5686 98.3451 10.6607C98.5062 10.7604 98.6366 10.8908 98.7439 11.0672C98.8437 11.2436 98.8974 11.4737 98.8974 11.7498C98.8974 11.9952 98.8513 12.2023 98.7593 12.3787C98.6749 12.5475 98.5599 12.6855 98.4141 12.8006C98.2607 12.9156 98.1073 13 97.9156 13.0537C97.7315 13.0997 97.5321 13.1304 97.3404 13.1304H97.2483C97.1277 13.1319 97.0072 13.1242 96.8878 13.1074V14.488H96.0978V10.5149ZM97.2713 11.0979C97.1429 11.0993 97.0148 11.1095 96.8878 11.1285V12.4248C96.9107 12.4286 96.9337 12.4312 96.9569 12.4324L97.0489 12.4401H97.2253C97.325 12.4401 97.4324 12.4401 97.5321 12.4171C97.6277 12.399 97.7189 12.3625 97.8006 12.3097C97.8773 12.2637 97.954 12.187 97.9923 12.0949C98.046 12.0029 98.069 11.8879 98.069 11.7345C98.069 11.6117 98.046 11.5044 97.9923 11.4277C97.9501 11.3481 97.8897 11.2798 97.8159 11.2282C97.7389 11.1787 97.6529 11.1448 97.5628 11.1285C97.4669 11.1087 97.3693 11.0985 97.2713 11.0979Z" fill="#63666A"/>
<path d="M99.9098 12.5166C99.9063 12.22 99.9372 11.924 100.002 11.6346C100.063 11.3738 100.155 11.1514 100.286 10.9749C100.408 10.7985 100.569 10.6605 100.761 10.5684C100.953 10.4687 101.175 10.415 101.428 10.415C101.712 10.415 101.942 10.4764 102.134 10.5761C102.326 10.6835 102.487 10.8215 102.602 11.0056C102.725 11.1897 102.817 11.4121 102.87 11.6729C102.924 11.926 102.955 12.2098 102.955 12.5166C102.955 13.1686 102.832 13.6824 102.571 14.0506C102.326 14.4264 101.942 14.6105 101.428 14.6105C101.152 14.6105 100.922 14.5568 100.723 14.4571C100.533 14.3558 100.372 14.208 100.255 14.0276C100.124 13.8243 100.033 13.5978 99.9865 13.3603C99.9328 13.1072 99.9098 12.8234 99.9098 12.5166ZM100.738 12.5166C100.738 12.7084 100.746 12.9001 100.769 13.0612C100.784 13.2299 100.815 13.3756 100.861 13.506C100.915 13.6288 100.984 13.7285 101.068 13.7975C101.16 13.8742 101.283 13.9049 101.428 13.9049C101.546 13.9122 101.663 13.8856 101.766 13.8282C101.85 13.7668 101.919 13.6824 101.981 13.5674C102.034 13.4523 102.073 13.3066 102.088 13.1379C102.144 12.6027 102.118 12.0622 102.011 11.5349C101.968 11.4175 101.894 11.3142 101.797 11.2357C101.691 11.1556 101.561 11.1149 101.428 11.1207C101.16 11.1207 100.976 11.2434 100.884 11.4735C100.784 11.7036 100.738 12.0564 100.738 12.5166Z" fill="#63666A"/>
<path d="M106.728 11.689C106.678 11.8878 106.555 12.0604 106.383 12.1722C106.299 12.2335 106.184 12.2795 106.061 12.3102V12.3486C106.168 12.3639 106.276 12.3946 106.383 12.4406C106.486 12.4857 106.578 12.5511 106.654 12.6328C106.731 12.7146 106.79 12.8109 106.828 12.9162C106.866 13.0312 106.889 13.1616 106.889 13.315C106.893 13.4917 106.852 13.6664 106.768 13.8222C106.685 13.9781 106.563 14.1098 106.414 14.2047C106.261 14.3044 106.107 14.3734 105.915 14.4195C105.731 14.4578 105.54 14.4808 105.348 14.4808H105.095C104.761 14.4799 104.428 14.4543 104.098 14.4041V10.5078C104.673 10.4143 105.259 10.3988 105.839 10.4618C106.015 10.4924 106.168 10.5385 106.307 10.6152C106.445 10.6919 106.56 10.7839 106.644 10.9143C106.721 11.037 106.767 11.2058 106.767 11.3975C106.767 11.4972 106.751 11.5892 106.728 11.689ZM105.087 12.1338C105.21 12.1317 105.333 12.124 105.455 12.1108C105.601 12.0725 105.724 12.0034 105.839 11.9114C105.938 11.827 105.992 11.7043 105.992 11.5586C105.993 11.4778 105.971 11.3983 105.931 11.3285C105.893 11.2653 105.841 11.2125 105.777 11.1751C105.711 11.1375 105.638 11.1116 105.563 11.0984C105.486 11.0754 105.394 11.0677 105.309 11.0677C105.151 11.0696 104.992 11.0773 104.834 11.0907V12.1338H105.087ZM105.616 13.8059C105.699 13.7838 105.777 13.7475 105.846 13.6985C105.919 13.6531 105.978 13.5896 106.018 13.5143C106.059 13.439 106.079 13.3544 106.076 13.269C106.082 13.1662 106.055 13.0644 106 12.9775C105.951 12.9084 105.885 12.8529 105.808 12.8164C105.731 12.7781 105.639 12.7474 105.54 12.7397C105.443 12.7289 105.345 12.7237 105.248 12.7244H104.834V13.7982C104.849 13.8135 104.88 13.8135 104.926 13.8212H105.056L105.21 13.8365H105.34C105.432 13.8365 105.524 13.8212 105.616 13.8059Z" fill="#63666A"/>
<path d="M108.032 12.5166C108.032 12.1868 108.063 11.8953 108.124 11.6346C108.186 11.3738 108.278 11.1514 108.408 10.9749C108.531 10.7985 108.692 10.6605 108.884 10.5684C109.075 10.4687 109.298 10.415 109.559 10.415C109.835 10.415 110.065 10.4764 110.257 10.5761C110.456 10.6835 110.609 10.8215 110.732 11.0056C110.855 11.1897 110.939 11.4121 110.993 11.6729C111.054 11.926 111.077 12.2098 111.077 12.5166C111.077 13.1686 110.955 13.6824 110.701 14.0506C110.448 14.4264 110.065 14.6105 109.551 14.6105C109.282 14.6105 109.045 14.5568 108.853 14.4571C108.66 14.3568 108.497 14.209 108.377 14.0276C108.249 13.8238 108.16 13.5973 108.117 13.3603C108.063 13.1072 108.04 12.8234 108.04 12.5166M108.861 12.5166C108.861 12.7084 108.876 12.9001 108.891 13.0612C108.907 13.2299 108.937 13.3756 108.991 13.506C109.037 13.6288 109.106 13.7285 109.198 13.7975C109.282 13.8742 109.405 13.9049 109.559 13.9049C109.674 13.9107 109.788 13.8842 109.888 13.8282C109.98 13.7668 110.049 13.6824 110.103 13.5674C110.157 13.4523 110.195 13.3066 110.218 13.1379C110.275 12.6028 110.249 12.0621 110.142 11.5349C110.098 11.4175 110.024 11.3142 109.927 11.2357C109.821 11.1556 109.691 11.1149 109.559 11.1207C109.29 11.1207 109.098 11.2434 109.006 11.4735C108.914 11.7036 108.861 12.0564 108.861 12.5166Z" fill="#63666A"/>
<path d="M114.253 12.3563L114.299 11.8347H114.268L114.038 12.3716L112.933 14.4808H112.22V10.4618H112.987V12.548L112.933 13.0849H112.964L113.202 12.5327L114.314 10.4618H115.012V14.4808H114.245L114.253 12.3563ZM113.286 9.40332C113.302 9.52604 113.34 9.61808 113.417 9.67177C113.493 9.72546 113.585 9.74847 113.7 9.74847C113.946 9.74847 114.084 9.64109 114.115 9.41099L114.728 9.5107C114.717 9.61638 114.683 9.7184 114.629 9.80976C114.575 9.90111 114.501 9.97963 114.414 10.0399C114.237 10.1473 113.999 10.201 113.693 10.201C113.539 10.201 113.401 10.1933 113.271 10.1703C113.148 10.1473 113.041 10.109 112.941 10.0553C112.842 10.0027 112.757 9.92593 112.696 9.83207C112.634 9.73822 112.597 9.63032 112.588 9.51837L113.286 9.40332Z" fill="#63666A"/>
<path d="M56.6129 20.379L56.6359 19.7654H56.6053L55.9763 20.8009H55.8383L55.1863 19.7731H55.1556L55.194 20.3253V22.4806H54.4577V18.5459H55.24L55.915 19.635H55.938L56.6053 18.5459H57.3799V22.4806H56.6129V20.379Z" fill="#63666A"/>
<path d="M60.609 21.6062H59.4355L59.167 22.4806H58.4L59.6656 18.5459H60.4326L61.6981 22.4806H60.8851L60.609 21.6062ZM59.6119 20.9926H60.4556L60.0568 19.6734H60.0031L59.6119 20.9926Z" fill="#63666A"/>
<path d="M62.8409 18.5156C63.4022 18.4073 63.9774 18.3918 64.5436 18.4696C64.7431 18.5003 64.9271 18.5693 65.0805 18.6613C65.2493 18.761 65.3797 18.8914 65.4794 19.0678C65.5791 19.2442 65.6328 19.4667 65.6328 19.7505C65.6328 19.9882 65.5868 20.203 65.5024 20.3717C65.4192 20.54 65.2985 20.6869 65.1496 20.8012C65.0038 20.9163 64.8428 21.0007 64.651 21.0467C64.4669 21.1004 64.2752 21.1234 64.0758 21.1234H63.9837C63.8942 21.1273 63.8045 21.1247 63.7153 21.1157L63.6233 21.1004V22.481H62.8409V18.5156ZM64.0067 19.0908C63.8783 19.0918 63.7502 19.1021 63.6233 19.1215V20.4254H63.6999C63.7636 20.4337 63.8276 20.4388 63.8917 20.4408H63.9684C64.0681 20.4408 64.1678 20.4407 64.2752 20.4177C64.3709 20.4 64.4621 20.3635 64.5436 20.3104C64.6259 20.2576 64.6922 20.1833 64.7354 20.0956C64.7872 19.9828 64.8109 19.8591 64.8044 19.7351C64.8102 19.636 64.7899 19.537 64.7455 19.4482C64.701 19.3594 64.6341 19.2838 64.5513 19.2289C64.4748 19.1769 64.3888 19.1404 64.2982 19.1215C64.2023 19.1018 64.1047 19.0915 64.0067 19.0908Z" fill="#63666A"/>
<path d="M67.9798 20.8392H67.5656V22.4806H66.7756V18.5459H67.5656V20.1566H67.9798L68.9002 18.5459H69.8052L68.6624 20.448L69.951 22.4806H68.9692L67.9798 20.8392Z" fill="#63666A"/>
<path d="M72.8655 20.402L72.9116 19.8881H72.8809L72.6508 20.425L71.5463 22.4806H70.833V18.5459H71.6V20.5861L71.5463 21.1153H71.577L71.8224 20.5708L72.9269 18.5459H73.6325V22.4806H72.8655V20.402Z" fill="#63666A"/>
<path d="M75.0285 18.5156C75.5897 18.4073 76.1649 18.3918 76.7312 18.4696C76.9306 18.5003 77.1147 18.5693 77.2681 18.6613C77.4368 18.761 77.5672 18.8914 77.6669 19.0678C77.7666 19.2442 77.8203 19.4667 77.8203 19.7505C77.8203 19.9882 77.7743 20.203 77.6899 20.3717C77.6067 20.54 77.486 20.6869 77.3371 20.8012C77.1914 20.9163 77.0303 21.0007 76.8386 21.0467C76.6545 21.1004 76.4628 21.1234 76.2633 21.1234H76.1713C76.0507 21.1273 75.93 21.1195 75.8108 21.1004V22.481H75.0285V18.5156ZM76.1943 19.0908C76.0659 19.0919 75.9378 19.1022 75.8108 19.1215V20.4254H75.8798C75.946 20.434 76.0126 20.4391 76.0793 20.4408H76.156C76.2557 20.4408 76.3554 20.4407 76.4627 20.4177C76.5584 20.4 76.6497 20.3635 76.7312 20.3104C76.8135 20.2576 76.8798 20.1833 76.923 20.0956C76.9774 19.9835 77.0038 19.8597 76.9996 19.7351C76.9996 19.6124 76.969 19.505 76.923 19.4283C76.881 19.3486 76.8205 19.2802 76.7465 19.2289C76.6679 19.1755 76.5791 19.139 76.4858 19.1215C76.3898 19.1018 76.2922 19.0915 76.1943 19.0908Z" fill="#63666A"/>
<path d="M78.9631 20.5187C78.9596 20.2221 78.9905 19.9261 79.0552 19.6366C79.1165 19.3758 79.2086 19.1534 79.339 18.977C79.4617 18.8006 79.6228 18.6625 79.8145 18.5628C80.0062 18.4708 80.2287 18.4171 80.4818 18.4171C80.7124 18.4012 80.943 18.4477 81.1495 18.5516C81.3559 18.6555 81.5306 18.813 81.6553 19.0077C81.778 19.1918 81.87 19.4142 81.9237 19.6673C81.9774 19.9281 82.0081 20.2042 82.0081 20.511C82.0081 21.1706 81.8854 21.6845 81.6246 22.0527C81.3792 22.4208 80.9957 22.6126 80.4818 22.6126C80.2057 22.6126 79.9756 22.5589 79.7762 22.4592C79.5857 22.3554 79.4247 22.205 79.3083 22.022C79.1779 21.8211 79.0868 21.5972 79.0398 21.3624C78.9862 21.1016 78.9631 20.8255 78.9631 20.5187ZM79.7915 20.5187C79.7915 20.7104 79.7992 20.8945 79.8145 21.0556C79.8375 21.232 79.8682 21.3777 79.9142 21.5004C79.9679 21.6308 80.0369 21.7305 80.1213 21.7995C80.2133 21.8762 80.3361 21.9069 80.4818 21.9069C80.6199 21.9069 80.7272 21.8762 80.8193 21.8302C80.9113 21.7689 80.9727 21.6768 81.034 21.5694C81.0877 21.4544 81.1261 21.3087 81.1491 21.1323C81.2028 20.5996 81.177 20.0619 81.0724 19.5369C81.0297 19.4172 80.9555 19.3112 80.8576 19.2301C80.749 19.151 80.6158 19.1129 80.4818 19.1227C80.2133 19.1227 80.0293 19.2378 79.9372 19.4756C79.8375 19.7057 79.7915 20.0585 79.7915 20.5187Z" fill="#63666A"/>
<path d="M85.7817 19.6902C85.7317 19.889 85.6084 20.0616 85.4366 20.1734C85.3522 20.2348 85.2371 20.2808 85.1144 20.3115V20.3422C85.2218 20.3652 85.3292 20.3958 85.4366 20.4419C85.5388 20.4873 85.6308 20.5529 85.7072 20.6345C85.7836 20.7162 85.8429 20.8124 85.8814 20.9174C85.9198 21.0248 85.9428 21.1628 85.9428 21.3162C85.9467 21.4929 85.905 21.6676 85.8217 21.8234C85.7384 21.9793 85.6163 22.111 85.4672 22.2059C85.3138 22.298 85.1604 22.367 84.9687 22.413C84.7808 22.462 84.5876 22.4878 84.3935 22.4897H84.148C83.8137 22.4856 83.4803 22.4548 83.1509 22.3977V18.509C83.5495 18.4486 83.952 18.4179 84.3551 18.417C84.5392 18.417 84.7156 18.4323 84.892 18.463C85.0684 18.4937 85.2218 18.5397 85.3599 18.6164C85.4979 18.6854 85.613 18.7852 85.6974 18.9155C85.7741 19.0383 85.8201 19.1993 85.8201 19.3987C85.8201 19.4985 85.8047 19.5905 85.7817 19.6902ZM84.1404 20.1351C84.2634 20.1336 84.3863 20.1259 84.5085 20.1121C84.6542 20.066 84.7769 20.0047 84.8843 19.9126C84.9917 19.8206 85.0377 19.7055 85.0377 19.5598C85.0415 19.4772 85.023 19.395 84.984 19.322C84.9466 19.2588 84.8939 19.2061 84.8306 19.1686C84.7643 19.1304 84.6915 19.1044 84.6159 19.0919C84.3733 19.076 84.1299 19.076 83.8872 19.0919V20.1351H84.1404ZM84.6696 21.7994C84.7514 21.7796 84.8292 21.7459 84.8997 21.6997C84.9721 21.6544 85.0314 21.5909 85.0718 21.5155C85.1121 21.4402 85.1321 21.3556 85.1298 21.2702C85.1349 21.1675 85.1081 21.0657 85.0531 20.9788C85.0037 20.9099 84.9377 20.8545 84.8613 20.8177C84.7846 20.7793 84.6926 20.7487 84.5929 20.741C84.4961 20.7304 84.3988 20.7253 84.3014 20.7256H83.8872V21.7994L83.9793 21.8148L84.1097 21.8301C84.2043 21.829 84.2989 21.829 84.3935 21.8301C84.4855 21.8301 84.5775 21.8301 84.6696 21.7994Z" fill="#63666A"/>
<path d="M88.4202 20.8392H88.006V22.4806H87.216V18.5459H88.006V20.1566H88.4126L89.3329 18.5459H90.2457L89.1028 20.448L90.3837 22.4806H89.4096L88.4202 20.8392Z" fill="#63666A"/>
<path d="M93.306 20.402L93.3443 19.8881H93.3213L93.0912 20.425L91.9867 22.4806H91.2734V18.5459H92.0404V20.5861L91.9867 21.1153H92.0174L92.2552 20.5708L93.3673 18.5459H94.0653V22.4806H93.2983L93.306 20.402Z" fill="#63666A"/>
<path d="M9.26632 17.4419C9.77254 18.0248 10.0333 18.7305 10.0333 19.5588C10.0333 20.2338 9.84923 20.8627 9.48108 21.438C9.07526 22.0554 8.50007 22.5427 7.82438 22.8416C7.08039 23.1944 6.15999 23.3708 5.06319 23.3708C4.25918 23.3709 3.45816 23.273 2.67783 23.0793C1.95513 22.9074 1.26403 22.6227 0.629959 22.2356L1.80346 19.8043C2.74467 20.4159 3.84103 20.7459 4.96348 20.7553C5.51571 20.7553 5.96057 20.648 6.28271 20.4485C6.60485 20.2338 6.77359 19.9423 6.77359 19.5588C6.77359 18.8225 6.19067 18.4467 5.0325 18.4467H3.67493V16.3988L5.71514 14.1899H1.22055V11.6895H9.45807V13.722L7.09572 16.2684C8.03913 16.4678 8.76778 16.859 9.274 17.4419" fill="#63666A"/>
<path d="M22.7194 11.6895V23.1177H19.475V18.6614H15.0495V23.11H11.8051V11.6971H15.0495V15.9923H19.475V11.6971L22.7194 11.6895Z" fill="#63666A"/>
<path d="M33.0739 12.0791C33.8884 12.5007 34.5567 13.1583 34.9914 13.9659C35.4516 14.7866 35.674 15.776 35.674 16.9342V23.1161H32.4296V20.5851H27.9503V23.1161H24.752V16.9265C24.752 15.776 24.9821 14.7789 25.4346 13.9582C25.8693 13.1506 26.5376 12.493 27.3521 12.0714C28.2392 11.6274 29.2212 11.4063 30.213 11.4271C31.2944 11.4271 32.2455 11.6419 33.0739 12.0714V12.0791ZM32.4296 18.077V16.6504C32.4296 15.8143 32.2225 15.1854 31.816 14.7559C31.6061 14.542 31.3535 14.3748 31.0747 14.2651C30.7958 14.1554 30.497 14.1057 30.1976 14.1193C29.5073 14.1193 28.9628 14.334 28.5563 14.7559C28.1574 15.1854 27.9503 15.8143 27.9503 16.6504V18.077H32.4296Z" fill="#63666A"/>
<path d="M40.9202 17.695V23.1177H37.6989V11.6895H40.9202V17.1044H40.9969L45.016 11.6895H48.874L44.4714 17.2118L48.9967 23.1177H44.8089L40.9202 17.695Z" fill="#63666A"/>
<path d="M6.47446 2.29395V8.13845H4.50328V6.26698C4.11212 6.38203 3.75162 6.44339 3.42948 6.44339C2.56278 6.44339 1.8955 6.24397 1.4353 5.82979C0.990448 5.43095 0.760345 4.8327 0.760345 4.05803V2.29395H2.72385V3.84327C2.72385 4.19609 2.80055 4.45687 2.96162 4.62561C3.11502 4.80202 3.36046 4.88639 3.68259 4.88639C4.02007 4.88639 4.2962 4.84037 4.50328 4.74833V2.29395H6.47446Z" fill="#63666A"/>
<path d="M12.5644 6.65048V8.13845H7.74002V2.29395H12.457V3.78192H9.66517V4.47221H12.1196V5.88348H9.66517V6.65048H12.5644Z" fill="#63666A"/>
<path d="M15.0648 7.74662C14.5741 7.50026 14.1628 7.12065 13.8779 6.65129C13.5931 6.18193 13.4462 5.64181 13.4541 5.09282C13.4466 4.5429 13.5935 4.00189 13.8783 3.53137C14.163 3.06085 14.5741 2.67972 15.0648 2.43135C15.571 2.17057 16.1386 2.04785 16.7599 2.04785C17.3351 2.04785 17.849 2.13989 18.3015 2.33931C18.7617 2.53873 19.1299 2.83019 19.4214 3.20601L18.1635 4.31816C18.0155 4.10888 17.8204 3.93736 17.5939 3.81744C17.3674 3.69752 17.1158 3.63258 16.8596 3.62786C16.4454 3.62786 16.1079 3.76592 15.8548 4.0267C15.6017 4.29515 15.4713 4.64029 15.4713 5.09282C15.4713 5.53001 15.6017 5.8905 15.8548 6.15128C16.1079 6.41205 16.4454 6.54244 16.8596 6.54244C17.3581 6.54244 17.7953 6.31235 18.1635 5.86749L19.4214 6.97196C19.1299 7.34779 18.7541 7.63925 18.3015 7.83867C17.849 8.03808 17.3351 8.13779 16.7675 8.13779C16.1309 8.13779 15.571 8.0074 15.0648 7.75429" fill="#63666A"/>
<path d="M25.3886 3.82793H23.6858V8.13845H21.7607V3.82793H20.058V2.29395H25.3886V3.82793Z" fill="#63666A"/>
<path d="M32.1228 2.29395V8.13845H30.1209V5.99086H28.2801V8.13845H26.2783V2.29395H28.2725V4.36483H30.1133V2.29395H32.1228Z" fill="#63666A"/>
<path d="M39.0104 6.02154C39.0104 6.70417 38.7803 7.22572 38.3201 7.59388C37.8599 7.95437 37.2463 8.13078 36.4486 8.13078H33.511V2.30162H35.4746V4.08871H36.7017C37.4381 4.08871 38.0056 4.24978 38.4121 4.57959C38.811 4.90173 39.0104 5.38493 39.0104 6.02154ZM37.0009 6.05222C37.0009 5.66105 36.7708 5.46931 36.3106 5.46931H35.4746V6.75786H36.3183C36.4997 6.76344 36.6761 6.6973 36.8091 6.57378C36.8755 6.50487 36.9268 6.42293 36.9598 6.33315C36.9928 6.24336 37.0068 6.1477 37.0009 6.05222ZM39.5473 2.29395H41.5108V8.13845H39.5473V2.29395Z" fill="#63666A"/>
<path d="M42.784 2.29422H44.7322V5.33152L46.7571 2.29422H48.6208V8.13872H46.6727V5.10142L44.6555 8.13872H42.784V2.29422ZM44.295 1.60392C44.0035 1.35849 43.8655 0.997998 43.8655 0.522461H45.1847C45.1847 0.70654 45.2231 0.844598 45.2998 0.928967C45.3765 1.00567 45.5068 1.05936 45.6986 1.05936C45.8903 1.05936 46.0207 1.01334 46.1051 0.928967C46.1818 0.852268 46.2278 0.70654 46.2278 0.522461H47.5471C47.5471 0.997998 47.3937 1.35849 47.1099 1.59625C46.8184 1.83402 46.3429 1.95674 45.6986 1.95674C45.0466 1.95674 44.5788 1.83402 44.295 1.59625V1.60392Z" fill="#63666A"/>
</svg>
